<?xml version="1.0" encoding="UTF-8"?>
<svg version="1.1" xmlns="http://www.w3.org/2000/svg" width="195" height="203">
<path d="M0 0 C3.78583996 1.56751867 6.16557849 3.93577091 9.02734375 6.83203125 C9.49813858 7.30565598 9.96893341 7.7792807 10.45399475 8.26725769 C11.9532789 9.77768755 13.4454658 11.29491149 14.9375 12.8125 C15.9363829 13.82142518 16.93572751 14.82989345 17.93554688 15.83789062 C19.78537161 17.70398404 21.63187321 19.57314888 23.47631836 21.44458008 C25.97390137 23.97357315 28.48561194 26.48772172 31 29 C32.7137302 30.72083968 34.42634017 32.44279063 36.13902283 34.16467285 C38.85491356 36.8940134 41.57351752 39.62064482 44.29223633 42.34716797 C45.72152036 43.78149443 47.14990746 45.21671523 48.57739258 46.65283203 C50.65207273 48.73969791 52.73001572 50.82326737 54.80859375 52.90625 C55.75574501 53.86114319 55.75574501 53.86114319 56.72203064 54.83532715 C60.33266748 58.44641547 64.04256554 61.77353835 68 65 C69.68933922 66.6436814 71.35259924 68.3142876 73 70 C74.02287109 71.00740234 74.02287109 71.00740234 75.06640625 72.03515625 C79.33185775 76.24286898 83.4067596 80.52233386 87.29296875 85.08203125 C89.62053996 87.69721996 92.14628282 90.08040674 94.71484375 92.45703125 C96 94 96 94 96 97 C94.42762573 96.75479614 94.42762573 96.75479614 92.82348633 96.50463867 C78.46161012 94.5039706 61.83567175 92.6878591 49.49121094 101.59814453 C36.68717585 112.01842371 25.97295842 124.98740779 15.72387695 137.85839844 C13.64440148 140.44176607 11.43901228 142.75354132 9 145 C8.34 145 7.68 145 7 145 C6.773125 145.5775 6.54625 146.155 6.3125 146.75 C4.66961977 149.5663661 2.60466773 151.08077114 0 153 C-6.08902483 147.90510168 -11.79910973 142.63778472 -16.9296875 136.56640625 C-22.19221839 130.52382843 -27.94056757 124.95342075 -33.625 119.3125 C-34.75544381 118.18708543 -35.88565372 117.06143588 -37.015625 115.93554688 C-39.09182238 113.86744253 -41.1693659 111.80071208 -43.24853516 109.7355957 C-44.15651855 108.83284912 -45.06450195 107.93010254 -46 107 C-46.90540527 106.11594482 -47.81081055 105.23188965 -48.74365234 104.32104492 C-50.97358529 102.02717211 -52.47885615 99.80210708 -54 97 C-52.48578999 95.48578999 -51.07527232 95.78690144 -48.96484375 95.68359375 C-48.15595703 95.64169922 -47.34707031 95.59980469 -46.51367188 95.55664062 C-45.66353516 95.51732422 -44.81339844 95.47800781 -43.9375 95.4375 C-43.08349609 95.39431641 -42.22949219 95.35113281 -41.34960938 95.30664062 C-39.23327963 95.20023298 -37.11666187 95.09958269 -35 95 C-36.485 86.585 -36.485 86.585 -38 78 C-38.66 78.99 -39.32 79.98 -40 81 C-40.99 81 -41.98 81 -43 81 C-43 78.36 -43 75.72 -43 73 C-43.928125 73.495 -44.85625 73.99 -45.8125 74.5 C-49 76 -49 76 -52 76 C-51.84518205 73.29068581 -51.51827919 71.53415961 -49.59765625 69.5546875 C-48.10228292 68.32320358 -46.5537076 67.1570163 -45 66 C-45.495 63.525 -45.495 63.525 -46 61 C-43.09404623 59.91026734 -40.82139754 60.07324433 -37.8125 60.5 C-36.554375 60.665 -35.29625 60.83 -34 61 C-33.67 60.67 -33.34 60.34 -33 60 C-31.00041636 59.95919217 -28.99954746 59.95745644 -27 60 C-27 61.32 -27 62.64 -27 64 C-27.33 64.33 -27.66 64.66 -28 65 C-26.35 65.99 -24.7 66.98 -23 68 C-22.896875 66.9275 -22.79375 65.855 -22.6875 64.75 C-22 61 -22 61 -19 57 C-23.29 56.67 -27.58 56.34 -32 56 C-29.7191787 51.43835741 -29.14480493 51.28352038 -24.5625 49.75 C-23.59441406 49.41484375 -22.62632813 49.0796875 -21.62890625 48.734375 C-19 48 -19 48 -16 48 C-16.66 47.01 -17.32 46.02 -18 45 C-17.625 42.8125 -17.625 42.8125 -17 41 C-11.8641579 42.87655769 -9.15557744 44.32974539 -6 49 C-3.525 48.505 -3.525 48.505 -1 48 C-1.00222061 47.41340103 -1.00444122 46.82680206 -1.00672913 46.22242737 C-1.0287821 40.13974616 -1.04390664 34.05707623 -1.05493164 27.97436523 C-1.05997325 25.70157409 -1.06680637 23.4287862 -1.07543945 21.15600586 C-1.08751261 17.89696449 -1.09322987 14.63796583 -1.09765625 11.37890625 C-1.10281754 10.35599991 -1.10797882 9.33309357 -1.11329651 8.27919006 C-1.11337204 7.33829025 -1.11344757 6.39739044 -1.11352539 5.42797852 C-1.115746 4.59524918 -1.11796661 3.76251984 -1.12025452 2.90455627 C-1 1 -1 1 0 0 Z M0 54 C0.66 54.66 1.32 55.32 2 56 C2.33 55.34 2.66 54.68 3 54 C2.01 54 1.02 54 0 54 Z M-4 61 C-4.10957031 61.68707031 -4.21914062 62.37414062 -4.33203125 63.08203125 C-4.49058594 63.98308594 -4.64914063 64.88414063 -4.8125 65.8125 C-4.96332031 66.70582031 -5.11414063 67.59914063 -5.26953125 68.51953125 C-6.05395393 71.18321256 -6.88627799 72.25690322 -9 74 C-9.33 71.69 -9.66 69.38 -10 67 C-15.06124757 72.06124757 -15.20469485 81.33677903 -15.25 88.125 C-15.27831019 92.22207124 -15.27831019 92.22207124 -14 96 C-9.71 96 -5.42 96 -1 96 C-0.83246412 91.41669691 -0.66593382 86.83336113 -0.5 82.25 C-0.45230469 80.94804688 -0.40460938 79.64609375 -0.35546875 78.3046875 C-0.31035156 77.05429688 -0.26523438 75.80390625 -0.21875 74.515625 C-0.17685547 73.36352539 -0.13496094 72.21142578 -0.09179688 71.02441406 C-0.02075529 68.68382066 0 66.34167128 0 64 C-1.92022703 62.22590192 -1.92022703 62.22590192 -4 61 Z M-19.625 66.5 C-20.40875 67.325 -21.1925 68.15 -22 69 C-21.34 70.98 -20.68 72.96 -20 75 C-22.97 74.01 -25.94 73.02 -29 72 C-29 74.64 -29 77.28 -29 80 C-29.66 80 -30.32 80 -31 80 C-31.66 79.34 -32.32 78.68 -33 78 C-32.65226572 84.63093294 -32.03910346 90.053928 -29 96 C-26.03 96 -23.06 96 -20 96 C-19.97421875 95.06800781 -19.9484375 94.13601562 -19.921875 93.17578125 C-19.5655358 85.16624788 -18.53774261 78.33987678 -15.83984375 70.70703125 C-14.80245832 67.83565889 -14.80245832 67.83565889 -15 64 C-17.36278736 63.77011494 -17.36278736 63.77011494 -19.625 66.5 Z M7 71 C8 73 8 73 8 73 Z " fill="#FDBF36" transform="translate(86,45)"/>
<path d="M0 0 C3.84612073 1.57859826 6.24153346 4.02655255 9.1328125 6.97265625 C9.84967728 7.69732338 9.84967728 7.69732338 10.58102417 8.43663025 C12.10053614 9.97389041 13.6131639 11.51769326 15.125 13.0625 C16.64484559 14.60997477 18.16613419 16.15595926 19.69039917 17.69908142 C21.06918742 19.09570801 22.44316065 20.49708323 23.81689453 21.89868164 C25.81680452 24.03259545 25.81680452 24.03259545 28 25 C28 25.66 28 26.32 28 27 C24.13671373 25.4152642 21.71123077 22.94043113 18.796875 19.9921875 C17.47187988 18.65969971 17.47187988 18.65969971 16.12011719 17.30029297 C15.00797852 16.16994629 13.89583984 15.03959961 12.75 13.875 C9.2025 10.28625 5.655 6.6975 2 3 C1.67 17.52 1.34 32.04 1 47 C2.65 47.66 4.3 48.32 6 49 C8.3125 50.4375 8.3125 50.4375 10 52 C10 52.99 10 53.98 10 55 C7.525 55.495 7.525 55.495 5 56 C5.433125 57.051875 5.433125 57.051875 5.875 58.125 C6.24625 59.07375 6.6175 60.0225 7 61 C7.37125 61.928125 7.7425 62.85625 8.125 63.8125 C9.19908269 67.72522979 9.139546 70.95316589 9 75 C8.01 74.67 7.02 74.34 6 74 C6 73.34 6 72.68 6 72 C4.68 72 3.36 72 2 72 C1.67 71.34 1.34 70.68 1 70 C0.67 78.91 0.34 87.82 0 97 C-5.28 97 -10.56 97 -16 97 C-16.33 91.72 -16.66 86.44 -17 81 C-19.40370085 85.8074017 -18.61705861 91.63882058 -19 97 C-29.23 97.66 -39.46 98.32 -50 99 C-49.34 100.32 -48.68 101.64 -48 103 C-50.62187494 101.95125002 -51.79371361 101.35068687 -53.25 98.875 C-53.4975 98.25625 -53.745 97.6375 -54 97 C-52.48578999 95.48578999 -51.07527232 95.78690144 -48.96484375 95.68359375 C-48.15595703 95.64169922 -47.34707031 95.59980469 -46.51367188 95.55664062 C-45.66353516 95.51732422 -44.81339844 95.47800781 -43.9375 95.4375 C-43.08349609 95.39431641 -42.22949219 95.35113281 -41.34960938 95.30664062 C-39.23327963 95.20023298 -37.11666187 95.09958269 -35 95 C-36.485 86.585 -36.485 86.585 -38 78 C-38.66 78.99 -39.32 79.98 -40 81 C-40.99 81 -41.98 81 -43 81 C-43 78.36 -43 75.72 -43 73 C-43.928125 73.495 -44.85625 73.99 -45.8125 74.5 C-49 76 -49 76 -52 76 C-51.84518205 73.29068581 -51.51827919 71.53415961 -49.59765625 69.5546875 C-48.10228292 68.32320358 -46.5537076 67.1570163 -45 66 C-45.495 63.525 -45.495 63.525 -46 61 C-43.09404623 59.91026734 -40.82139754 60.07324433 -37.8125 60.5 C-36.554375 60.665 -35.29625 60.83 -34 61 C-33.67 60.67 -33.34 60.34 -33 60 C-31.00041636 59.95919217 -28.99954746 59.95745644 -27 60 C-27 61.32 -27 62.64 -27 64 C-27.33 64.33 -27.66 64.66 -28 65 C-26.35 65.99 -24.7 66.98 -23 68 C-22.896875 66.9275 -22.79375 65.855 -22.6875 64.75 C-22 61 -22 61 -19 57 C-23.29 56.67 -27.58 56.34 -32 56 C-29.7191787 51.43835741 -29.14480493 51.28352038 -24.5625 49.75 C-23.59441406 49.41484375 -22.62632813 49.0796875 -21.62890625 48.734375 C-19 48 -19 48 -16 48 C-16.66 47.01 -17.32 46.02 -18 45 C-17.625 42.8125 -17.625 42.8125 -17 41 C-11.8641579 42.87655769 -9.15557744 44.32974539 -6 49 C-3.525 48.505 -3.525 48.505 -1 48 C-1.00222061 47.41340103 -1.00444122 46.82680206 -1.00672913 46.22242737 C-1.0287821 40.13974616 -1.04390664 34.05707623 -1.05493164 27.97436523 C-1.05997325 25.70157409 -1.06680637 23.4287862 -1.07543945 21.15600586 C-1.08751261 17.89696449 -1.09322987 14.63796583 -1.09765625 11.37890625 C-1.10281754 10.35599991 -1.10797882 9.33309357 -1.11329651 8.27919006 C-1.11337204 7.33829025 -1.11344757 6.39739044 -1.11352539 5.42797852 C-1.115746 4.59524918 -1.11796661 3.76251984 -1.12025452 2.90455627 C-1 1 -1 1 0 0 Z M0 54 C0.66 54.66 1.32 55.32 2 56 C2.33 55.34 2.66 54.68 3 54 C2.01 54 1.02 54 0 54 Z M-4 61 C-4.10957031 61.68707031 -4.21914062 62.37414062 -4.33203125 63.08203125 C-4.49058594 63.98308594 -4.64914063 64.88414063 -4.8125 65.8125 C-4.96332031 66.70582031 -5.11414063 67.59914063 -5.26953125 68.51953125 C-6.05395393 71.18321256 -6.88627799 72.25690322 -9 74 C-9.33 71.69 -9.66 69.38 -10 67 C-15.06124757 72.06124757 -15.20469485 81.33677903 -15.25 88.125 C-15.27831019 92.22207124 -15.27831019 92.22207124 -14 96 C-9.71 96 -5.42 96 -1 96 C-0.83246412 91.41669691 -0.66593382 86.83336113 -0.5 82.25 C-0.45230469 80.94804688 -0.40460938 79.64609375 -0.35546875 78.3046875 C-0.31035156 77.05429688 -0.26523438 75.80390625 -0.21875 74.515625 C-0.17685547 73.36352539 -0.13496094 72.21142578 -0.09179688 71.02441406 C-0.02075529 68.68382066 0 66.34167128 0 64 C-1.92022703 62.22590192 -1.92022703 62.22590192 -4 61 Z M-19.625 66.5 C-20.40875 67.325 -21.1925 68.15 -22 69 C-21.34 70.98 -20.68 72.96 -20 75 C-22.97 74.01 -25.94 73.02 -29 72 C-29 74.64 -29 77.28 -29 80 C-29.66 80 -30.32 80 -31 80 C-31.66 79.34 -32.32 78.68 -33 78 C-32.65226572 84.63093294 -32.03910346 90.053928 -29 96 C-26.03 96 -23.06 96 -20 96 C-19.97421875 95.06800781 -19.9484375 94.13601562 -19.921875 93.17578125 C-19.5655358 85.16624788 -18.53774261 78.33987678 -15.83984375 70.70703125 C-14.80245832 67.83565889 -14.80245832 67.83565889 -15 64 C-17.36278736 63.77011494 -17.36278736 63.77011494 -19.625 66.5 Z M7 71 C8 73 8 73 8 73 Z " fill="#F0D7B5" transform="translate(86,45)"/>
<path d="M0 0 C0.33 0 0.66 0 1 0 C1 6.27 1 12.54 1 19 C6.28 19 11.56 19 17 19 C17 19.33 17 19.66 17 20 C14.69 20 12.38 20 10 20 C10.4558533 23.25035281 10.91474916 26.50026701 11.375 29.75 C11.51147949 30.71486328 11.64795898 31.67972656 11.78857422 32.67382812 C12.49611878 37.63080699 13.24559658 42.57001113 14.125 47.5 C15.18843795 53.63249219 15.61953875 59.79247437 16 66 C17.65 66 19.3 66 21 66 C21.165 65.38125 21.33 64.7625 21.5 64.125 C23.90181375 60.72243051 27.00162134 60.77387974 31 60 C31 62 31 62 28.625 64.625 C26 67 26 67 24 67 C23.773125 67.5775 23.54625 68.155 23.3125 68.75 C21.66961977 71.5663661 19.60466773 73.08077114 17 75 C10.90722723 69.90196564 5.19272143 64.63582968 0.0703125 58.55078125 C-3.12155963 54.88240942 -6.50279661 51.46346229 -9.9765625 48.06640625 C-10.51347717 47.53972351 -11.05039185 47.01304077 -11.60357666 46.47039795 C-13.83836438 44.28079577 -16.07494821 42.09336944 -18.32617188 39.9206543 C-24.59842386 33.85596672 -30.48136495 28.15754717 -34 20 C-23.32089373 19.36850058 -12.7016389 18.82708303 -2 19 C-2.02320312 18.04738281 -2.04640625 17.09476563 -2.0703125 16.11328125 C-2.08835937 14.85902344 -2.10640625 13.60476562 -2.125 12.3125 C-2.14820312 11.07113281 -2.17140625 9.82976562 -2.1953125 8.55078125 C-2.01032021 5.18762143 -1.45767895 3.0014413 0 0 Z " fill="#F8AB45" transform="translate(69,123)"/>
<path d="M0 0 C7.85075961 6.72922252 7.85075961 6.72922252 11.4453125 10.41796875 C12.59580078 11.58682617 12.59580078 11.58682617 13.76953125 12.77929688 C15.34952252 14.39466108 16.92762686 16.0118729 18.50390625 17.63085938 C19.26832031 18.40623047 20.03273438 19.18160156 20.8203125 19.98046875 C21.50367676 20.68067139 22.18704102 21.38087402 22.89111328 22.10229492 C24.94481906 24.0757619 24.94481906 24.0757619 27.44360352 25.44580078 C30.44006168 27.26754204 32.61848582 29.39294577 35.08203125 31.88671875 C35.54107346 32.34859085 36.00011566 32.81046295 36.47306824 33.28633118 C37.92434914 34.74872138 39.36848204 36.21794126 40.8125 37.6875 C41.80096646 38.68600823 42.78989437 39.68405989 43.77929688 40.68164062 C46.19077274 43.11664308 48.59744957 45.5561959 51 48 C48 49 48 49 45 48 C45 46.68 45 45.36 45 44 C44.401875 43.896875 43.80375 43.79375 43.1875 43.6875 C40.71756736 42.91123545 39.67748765 41.92911079 38 40 C38.495 39.01 38.495 39.01 39 38 C37.35 37.67 35.7 37.34 34 37 C33.505 35.02 33.505 35.02 33 33 C32.34 33 31.68 33 31 33 C30.566875 32.21625 30.13375 31.4325 29.6875 30.625 C27.73201719 27.58313785 26.39788151 27.01018099 23 26 C22.59007813 26.433125 22.18015625 26.86625 21.7578125 27.3125 C21.21898438 27.869375 20.68015625 28.42625 20.125 29 C19.59132813 29.556875 19.05765625 30.11375 18.5078125 30.6875 C17 32 17 32 15 32 C14.938125 32.8353125 14.938125 32.8353125 14.875 33.6875 C13.49042634 37.34673038 11.19027233 38.76680937 8 41 C7.01 40.67 6.02 40.34 5 40 C4.67 38.35 4.34 36.7 4 35 C3.01 35.495 3.01 35.495 2 36 C1.74984127 39.41642759 1.74984127 39.41642759 2 43 C2.99 43.66 3.98 44.32 5 45 C5 45.66 5 46.32 5 47 C3.35 46.34 1.7 45.68 0 45 C0 30.15 0 15.3 0 0 Z " fill="#FBBF3A" transform="translate(87,47)"/>
<path d="M0 0 C1.24546405 2.49092811 0.7767578 3.41080733 0 6 C2.38564077 5.42415568 4.66682784 4.77772405 7 4 C7 4.66 7 5.32 7 6 C7.99 6 8.98 6 10 6 C10.33 7.32 10.66 8.64 11 10 C11.88945312 10.15662109 11.88945312 10.15662109 12.796875 10.31640625 C15.32410372 11.1005641 16.4230218 12.05054524 18.25 13.9375 C19.03117187 14.72447266 19.03117187 14.72447266 19.828125 15.52734375 C21 17 21 17 21 19 C8.46 19 -4.08 19 -17 19 C-15.27370154 15.54740307 -14.16774527 13.92761399 -11.5234375 11.328125 C-10.51796875 10.33232422 -10.51796875 10.33232422 -9.4921875 9.31640625 C-8.79351562 8.63449219 -8.09484375 7.95257813 -7.375 7.25 C-6.66859375 6.55261719 -5.9621875 5.85523437 -5.234375 5.13671875 C-3.49401297 3.41987512 -1.74915019 1.70788168 0 0 Z " fill="#F9AB44" transform="translate(159,122)"/>
<path d="M0 0 C2.86724686 0.57344937 3.8614515 0.8614515 6 3 C6 3.99 6 4.98 6 6 C6.515625 5.649375 7.03125 5.29875 7.5625 4.9375 C10.96915087 3.62724967 13.47476024 4.2818956 17 5 C17.66 5.33 18.32 5.66 19 6 C19 6.66 19 7.32 19 8 C16.03 8 13.06 8 10 8 C11.73533558 11.09284547 11.73533558 11.09284547 14.4375 12.375 C17.41972341 14.26616607 18.52467946 15.81641358 20 19 C20 20.32 20 21.64 20 23 C19.01 23 18.02 23 17 23 C16.731875 22.360625 16.46375 21.72125 16.1875 21.0625 C15.11332248 18.66868314 15.11332248 18.66868314 12 18 C11.67 17.01 11.34 16.02 11 15 C10.34 14.67 9.68 14.34 9 14 C9.04125 15.11375 9.0825 16.2275 9.125 17.375 C9 21 9 21 7 23 C6.34 20.69 5.68 18.38 5 16 C4.34 16.33 3.68 16.66 3 17 C3 16.01 3 15.02 3 14 C2.21625 14.495 1.4325 14.99 0.625 15.5 C-2 17 -2 17 -4 17 C-4 17.66 -4 18.32 -4 19 C-4.66 19 -5.32 19 -6 19 C-6.33 19.99 -6.66 20.98 -7 22 C-7.33 21.01 -7.66 20.02 -8 19 C-7.07421875 17.17578125 -7.07421875 17.17578125 -5.6875 15.3125 C-5.23761719 14.68988281 -4.78773437 14.06726563 -4.32421875 13.42578125 C-3.88722656 12.95527344 -3.45023438 12.48476562 -3 12 C-2.34 12 -1.68 12 -1 12 C-1 11.34 -1 10.68 -1 10 C-5.95 10 -10.9 10 -16 10 C-12.04086703 6.04086703 -9.21017701 4.88475738 -3.6875 4.875 C-2.470625 4.91625 -1.25375 4.9575 0 5 C0 3.35 0 1.7 0 0 Z " fill="#EAB265" transform="translate(72,90)"/>
<path d="M0 0 C2.85796636 0.18088395 5.68604342 0.52109771 8.53125 0.84375 C9.75328125 0.92109375 9.75328125 0.92109375 11 1 C11.33 0.67 11.66 0.34 12 0 C13.99958364 -0.04080783 16.00045254 -0.04254356 18 0 C18 1.32 18 2.64 18 4 C16.02 4.99 16.02 4.99 14 6 C14.55429687 6.24234375 15.10859375 6.4846875 15.6796875 6.734375 C16.40414062 7.06953125 17.12859375 7.4046875 17.875 7.75 C18.59429687 8.07484375 19.31359375 8.3996875 20.0546875 8.734375 C22.3370674 10.21929686 23.00375898 11.50415408 24 14 C23.29875 13.71125 22.5975 13.4225 21.875 13.125 C18.94547497 11.97866412 15.99078347 10.97374346 13 10 C13.99 11.485 13.99 11.485 15 13 C15 14.32 15 15.64 15 17 C14.34 17 13.68 17 13 17 C12.67 15.68 12.34 14.36 12 13 C11.01 13.33 10.02 13.66 9 14 C9 13.34 9 12.68 9 12 C8.34 12 7.68 12 7 12 C6.7834375 13.11375 6.7834375 13.11375 6.5625 14.25 C6.09812508 16.52027739 5.58136431 18.75759479 5 21 C4.01 21 3.02 21 2 21 C2 18.36 2 15.72 2 13 C0.6078125 13.7425 0.6078125 13.7425 -0.8125 14.5 C-4 16 -4 16 -7 16 C-6.84518205 13.29068581 -6.51827919 11.53415961 -4.59765625 9.5546875 C-3.10228292 8.32320358 -1.5537076 7.1570163 0 6 C-0.2784375 4.7934375 -0.2784375 4.7934375 -0.5625 3.5625 C-0.706875 2.716875 -0.85125 1.87125 -1 1 C-0.67 0.67 -0.34 0.34 0 0 Z " fill="#E8B66E" transform="translate(41,105)"/>
<path d="M0 0 C3.10215606 1.26384136 5.15555814 2.98293005 7.45703125 5.390625 C9.38951004 7.40627376 11.38537185 9.35327363 13.375 11.3125 C16.8464538 14.77820636 20.11224439 18.35008065 23.29296875 22.08203125 C25.62053996 24.69721996 28.14628282 27.08040674 30.71484375 29.45703125 C32 31 32 31 32 34 C30.90461914 33.88366211 29.80923828 33.76732422 28.68066406 33.64746094 C5.22428572 31.09862101 5.22428572 31.09862101 -15.87033081 39.48629761 C-23.84868897 46.42385323 -30.66130258 54.56533242 -37 63 C-37 59.35838005 -36.01418023 57.98397071 -34 55 C-33 54 -32 53 -31 52 C-30.67 51.01 -30.34 50.02 -30 49 C-27.08769976 46.2908835 -24.74128535 44.33841288 -21.125 42.6875 C-18.00038038 41.30046095 -18.00038038 41.30046095 -16.66552734 39.1027832 C-14.28451274 35.82125195 -12.04148187 33.42416363 -7.93707275 32.57138062 C-1.8007352 31.98023463 4.35050866 32.27319204 10.5 32.5 C12.39054979 32.54016932 14.28118145 32.57666404 16.171875 32.609375 C20.78328445 32.69712289 25.39073697 32.83492997 30 33 C28.90344712 31.68113228 27.79746577 30.37009943 26.6875 29.0625 C26.07261719 28.33160156 25.45773438 27.60070312 24.82421875 26.84765625 C23.04024481 24.76179634 23.04024481 24.76179634 20 24 C19.3125 21.9375 19.3125 21.9375 19 20 C18.01 20 17.02 20 16 20 C16 19.34 16 18.68 16 18 C15.236875 18.515625 14.47375 19.03125 13.6875 19.5625 C12.800625 20.036875 11.91375 20.51125 11 21 C10.01 20.67 9.02 20.34 8 20 C8.33 17.03 8.66 14.06 9 11 C7.68 10.67 6.36 10.34 5 10 C5 8.68 5 7.36 5 6 C4.01 6 3.02 6 2 6 C1.34 4.02 0.68 2.04 0 0 Z " fill="#FCE6C5" transform="translate(150,108)"/>
<path d="M0 0 C3.84612073 1.57859826 6.24153346 4.02655255 9.1328125 6.97265625 C9.61072235 7.45576767 10.0886322 7.93887909 10.58102417 8.43663025 C12.10053614 9.97389041 13.6131639 11.51769326 15.125 13.0625 C16.64484559 14.60997477 18.16613419 16.15595926 19.69039917 17.69908142 C21.06918742 19.09570801 22.44316065 20.49708323 23.81689453 21.89868164 C25.81680452 24.03259545 25.81680452 24.03259545 28 25 C28 25.66 28 26.32 28 27 C24.13671373 25.4152642 21.71123077 22.94043113 18.796875 19.9921875 C17.91354492 19.1038623 17.03021484 18.21553711 16.12011719 17.30029297 C15.00797852 16.16994629 13.89583984 15.03959961 12.75 13.875 C9.2025 10.28625 5.655 6.6975 2 3 C1.67 17.52 1.34 32.04 1 47 C2.65 47.66 4.3 48.32 6 49 C8.3125 50.4375 8.3125 50.4375 10 52 C10 52.99 10 53.98 10 55 C7.525 55.495 7.525 55.495 5 56 C5.433125 57.051875 5.433125 57.051875 5.875 58.125 C6.24625 59.07375 6.6175 60.0225 7 61 C7.556875 62.3921875 7.556875 62.3921875 8.125 63.8125 C9.19908269 67.72522979 9.139546 70.95316589 9 75 C8.01 74.67 7.02 74.34 6 74 C6.99 73.505 6.99 73.505 8 73 C7.34 72.01 6.68 71.02 6 70 C5 68 5 68 4.625 65.6875 C3.60781629 61.31361005 2.14713865 58.72029636 -1.6875 56.3125 C-2.450625 55.879375 -3.21375 55.44625 -4 55 C-4 54.34 -4 53.68 -4 53 C-1.03 53 1.94 53 5 53 C5 52.34 5 51.68 5 51 C1.37 50.67 -2.26 50.34 -6 50 C-5.67 49.34 -5.34 48.68 -5 48 C-3.68 48 -2.36 48 -1 48 C-1.00222061 47.41340103 -1.00444122 46.82680206 -1.00672913 46.22242737 C-1.0287821 40.13974616 -1.04390664 34.05707623 -1.05493164 27.97436523 C-1.05997325 25.70157409 -1.06680637 23.4287862 -1.07543945 21.15600586 C-1.08751261 17.89696449 -1.09322987 14.63796583 -1.09765625 11.37890625 C-1.10281754 10.35599991 -1.10797882 9.33309357 -1.11329651 8.27919006 C-1.11337204 7.33829025 -1.11344757 6.39739044 -1.11352539 5.42797852 C-1.115746 4.59524918 -1.11796661 3.76251984 -1.12025452 2.90455627 C-1 1 -1 1 0 0 Z M0 54 C0.66 54.66 1.32 55.32 2 56 C2.33 55.34 2.66 54.68 3 54 C2.01 54 1.02 54 0 54 Z " fill="#FBEAC2" transform="translate(86,45)"/>
<path d="M0 0 C7.94720169 3.14889124 7.94720169 3.14889124 10 6 C10.6875 8.1875 10.6875 8.1875 11 10 C10.34 10 9.68 10 9 10 C8.525625 9.195625 8.05125 8.39125 7.5625 7.5625 C6.20016328 4.7081924 6.20016328 4.7081924 3 4 C3 5.65 3 7.3 3 9 C2.33613281 9.12117188 1.67226562 9.24234375 0.98828125 9.3671875 C0.10527344 9.53476563 -0.77773437 9.70234375 -1.6875 9.875 C-2.99267578 10.11863281 -2.99267578 10.11863281 -4.32421875 10.3671875 C-7.44794526 11.03636846 -7.44794526 11.03636846 -12 13 C-5.07 13.495 -5.07 13.495 2 14 C2 14.66 2 15.32 2 16 C1.195625 16.78375 0.39125 17.5675 -0.4375 18.375 C-3.7599707 21.77850657 -4 23.39668193 -4 28 C-3.68578929 30.00309329 -3.3548954 32.00371336 -3 34 C-8.75 33.125 -8.75 33.125 -11 32 C-11 34.31 -11 36.62 -11 39 C-12.32 39 -13.64 39 -15 39 C-15 41.97 -15 44.94 -15 48 C-15.66 46.68 -16.32 45.36 -17 44 C-17.33 45.98 -17.66 47.96 -18 50 C-18.33 50 -18.66 50 -19 50 C-19.66 45.71 -20.32 41.42 -21 37 C-21.99 37.495 -21.99 37.495 -23 38 C-22.34 35.69 -21.68 33.38 -21 31 C-19.35 31.33 -17.7 31.66 -16 32 C-15.67 33.32 -15.34 34.64 -15 36 C-14.34 36 -13.68 36 -13 36 C-13.66 33.69 -14.32 31.38 -15 29 C-10.6109185 29.51035831 -7.66291938 30.52214277 -4 33 C-7.82180842 28.5991297 -10.47371099 27.19194469 -16 26 C-15.01 25.01 -14.02 24.02 -13 23 C-10.50638429 24.20381448 -8.31856917 25.45428722 -6 27 C-5.896875 25.9275 -5.79375 24.855 -5.6875 23.75 C-5 20 -5 20 -2 16 C-6.29 15.67 -10.58 15.34 -15 15 C-12.7191787 10.43835741 -12.14480493 10.28352038 -7.5625 8.75 C-6.59441406 8.41484375 -5.62632813 8.0796875 -4.62890625 7.734375 C-2 7 -2 7 1 7 C0.34 6.01 -0.32 5.02 -1 4 C-0.625 1.8125 -0.625 1.8125 0 0 Z " fill="#FBEED8" transform="translate(69,86)"/>
<path d="M0 0 C2.31 0 4.62 0 7 0 C7 16.17 7 32.34 7 49 C4.61849219 45.42773829 4.43788874 42.46348541 4.0625 38.3125 C3.90164818 36.70163119 3.7387741 35.09096344 3.57421875 33.48046875 C3.48575684 32.60825684 3.39729492 31.73604492 3.30615234 30.83740234 C2.62643777 24.53784672 1.78239978 18.25680999 0.96508789 11.97387695 C0.83996826 10.99507568 0.71484863 10.01627441 0.5859375 9.0078125 C0.4729834 8.13785645 0.3600293 7.26790039 0.24365234 6.37158203 C0 4 0 4 0 0 Z " fill="#D38721" transform="translate(79,143)"/>
<path d="M0 0 C0.721875 0.598125 1.44375 1.19625 2.1875 1.8125 C4.83913685 3.98514874 4.83913685 3.98514874 7.3581543 5.33129883 C10.35408318 7.22365387 12.59244756 9.36658802 15.08203125 11.88671875 C15.54107346 12.34859085 16.00011566 12.81046295 16.47306824 13.28633118 C17.92434914 14.74872138 19.36848204 16.21794126 20.8125 17.6875 C21.80096646 18.68600823 22.78989437 19.68405989 23.77929688 20.68164062 C26.19077274 23.11664308 28.59744957 25.5561959 31 28 C28 29 28 29 25 28 C25 26.68 25 25.36 25 24 C24.401875 23.896875 23.80375 23.79375 23.1875 23.6875 C20.71756736 22.91123545 19.67748765 21.92911079 18 20 C18.33 19.34 18.66 18.68 19 18 C17.35 17.67 15.7 17.34 14 17 C13.67 15.68 13.34 14.36 13 13 C12.34 13 11.68 13 11 13 C10.566875 12.21625 10.13375 11.4325 9.6875 10.625 C7.73201719 7.58313785 6.39788151 7.01018099 3 6 C2.59007813 6.433125 2.18015625 6.86625 1.7578125 7.3125 C1.21898438 7.869375 0.68015625 8.42625 0.125 9 C-0.40867187 9.556875 -0.94234375 10.11375 -1.4921875 10.6875 C-3 12 -3 12 -5 12 C-5.04125 12.556875 -5.0825 13.11375 -5.125 13.6875 C-6.48977108 17.294395 -8.91080176 18.73038496 -12 21 C-12.66 21 -13.32 21 -14 21 C-13.64231781 17.78086029 -12.89054667 16.893283 -10.5 14.5625 C-7.78836051 12.27107434 -7.78836051 12.27107434 -7.5625 9.375 C-7.376875 8.59125 -7.19125 7.8075 -7 7 C-5.01679982 5.96708324 -3.01652194 4.9662501 -1 4 C-0.03955898 1.92309422 -0.03955898 1.92309422 0 0 Z " fill="#F9C64B" transform="translate(107,67)"/>
<path d="M0 0 C2 3 2 3 2 5 C2.99 5.33 3.98 5.66 5 6 C5.103125 6.639375 5.20625 7.27875 5.3125 7.9375 C5.539375 8.618125 5.76625 9.29875 6 10 C7.98248715 10.71706982 9.98415349 11.38290413 12 12 C12.99 13.485 12.99 13.485 14 15 C14.99 15 15.98 15 17 15 C18.66666667 15 20.33333333 15 22 15 C22.165 14.38125 22.33 13.7625 22.5 13.125 C24.90181375 9.72243051 28.00162134 9.77387974 32 9 C32 11 32 11 29.625 13.625 C27 16 27 16 25 16 C24.773125 16.5775 24.54625 17.155 24.3125 17.75 C22.66961977 20.5663661 20.60466773 22.08077114 18 24 C-0.05263158 8.89473684 -0.05263158 8.89473684 -4 1 C-2.68 0.67 -1.36 0.34 0 0 Z " fill="#ECB05D" transform="translate(68,174)"/>
<path d="M0 0 C6.27 0 12.54 0 19 0 C17.02 0.99 17.02 0.99 15 2 C11.83216875 5.34382187 11 6.26882208 11 11 C11.99 11.33 12.98 11.66 14 12 C14 12.66 14 13.32 14 14 C14.66 14.33 15.32 14.66 16 15 C16.25523438 15.56203125 16.51046875 16.1240625 16.7734375 16.703125 C18.49508638 19.92710444 21.02471766 22.23551377 23.625 24.75 C24.140625 25.25660156 24.65625 25.76320312 25.1875 26.28515625 C26.45383339 27.52803902 27.7263144 28.76465276 29 30 C28.67 30.66 28.34 31.32 28 32 C24.80270136 28.90258093 21.61953 25.79147093 18.44799805 22.66772461 C17.37027432 21.60994979 16.2889672 20.55581178 15.20385742 19.50561523 C9.00303152 13.49919052 3.72553823 7.92193162 0 0 Z " fill="#F5C580" transform="translate(35,143)"/>
<path d="M0 0 C3.81348814 1.55364332 6.21071353 4.08488106 9 7 C10.53895008 8.54437848 12.08083266 10.08583807 13.625 11.625 C15.8125 13.8125 15.8125 13.8125 18 16 C18.57105469 16.52980469 19.14210937 17.05960938 19.73046875 17.60546875 C21.50628583 19.55613552 21.65359284 21.43658698 22 24 C21.34 24 20.68 24 20 24 C19.67 22.68 19.34 21.36 19 20 C18.01 20 17.02 20 16 20 C16 19.34 16 18.68 16 18 C14.8553125 18.7734375 14.8553125 18.7734375 13.6875 19.5625 C12.800625 20.036875 11.91375 20.51125 11 21 C10.01 20.67 9.02 20.34 8 20 C8.495 15.545 8.495 15.545 9 11 C7.68 10.67 6.36 10.34 5 10 C5 8.68 5 7.36 5 6 C4.01 6 3.02 6 2 6 C1.34 4.02 0.68 2.04 0 0 Z " fill="#F1B663" transform="translate(150,108)"/>
<path d="M0 0 C1.65 0.33 3.3 0.66 5 1 C5.33 2.65 5.66 4.3 6 6 C4.35 6.33 2.7 6.66 1 7 C1 7.99 1 8.98 1 10 C1.66 10 2.32 10 3 10 C4.2982126 15.76081841 5.25706972 21.08739655 5 27 C3.125 27.625 3.125 27.625 1 28 C0.34 27.34 -0.32 26.68 -1 26 C-2.32 25.67 -3.64 25.34 -5 25 C-5 32.59 -5 40.18 -5 48 C-5.33 48 -5.66 48 -6 48 C-6 38.76 -6 29.52 -6 20 C-5.34 20.33 -4.68 20.66 -4 21 C-4 21.66 -4 22.32 -4 23 C-2.68 23 -1.36 23 0 23 C1.75 24.5 1.75 24.5 3 26 C2.05552723 19.75536825 0.9583417 14.63493656 -2 9 C-1.67 8.01 -1.34 7.02 -1 6 C0.65 6 2.3 6 4 6 C2.84826645 3.53199953 1.95216435 1.95216435 0 0 Z " fill="#F2C55F" transform="translate(92,94)"/>
<path d="M0 0 C2.85796636 0.18088395 5.68604342 0.52109771 8.53125 0.84375 C9.75328125 0.92109375 9.75328125 0.92109375 11 1 C11.33 0.67 11.66 0.34 12 0 C13.99958364 -0.04080783 16.00045254 -0.04254356 18 0 C18 1.32 18 2.64 18 4 C17.67 3.01 17.34 2.02 17 1 C16.39671875 1.2165625 15.7934375 1.433125 15.171875 1.65625 C14.37265625 1.9346875 13.5734375 2.213125 12.75 2.5 C11.56664062 2.91765625 11.56664062 2.91765625 10.359375 3.34375 C8 4 8 4 4 4 C4.66 4.33 5.32 4.66 6 5 C6 5.99 6 6.98 6 8 C5.37351562 8.18175781 4.74703125 8.36351563 4.1015625 8.55078125 C2.87566406 8.92783203 2.87566406 8.92783203 1.625 9.3125 C0.40683594 9.67794922 0.40683594 9.67794922 -0.8359375 10.05078125 C-3.33184629 10.91368185 -3.33184629 10.91368185 -5 14 C-2.03 13.01 0.94 12.02 4 11 C3.95117188 14.02734375 3.95117188 14.02734375 3.90234375 17.0546875 C3.87350758 19.08185404 3.87350758 19.08185404 5 21 C4.01 21 3.02 21 2 21 C2 18.36 2 15.72 2 13 C0.6078125 13.7425 0.6078125 13.7425 -0.8125 14.5 C-4 16 -4 16 -7 16 C-6.84518205 13.29068581 -6.51827919 11.53415961 -4.59765625 9.5546875 C-3.10228292 8.32320358 -1.5537076 7.1570163 0 6 C-0.2784375 4.7934375 -0.2784375 4.7934375 -0.5625 3.5625 C-0.706875 2.716875 -0.85125 1.87125 -1 1 C-0.67 0.67 -0.34 0.34 0 0 Z " fill="#F6E0BC" transform="translate(41,105)"/>
<path d="M0 0 C1.32 0.33 2.64 0.66 4 1 C4.33 2.32 4.66 3.64 5 5 C7.475 5.495 7.475 5.495 10 6 C9.34 7.32 8.68 8.64 8 10 C6.0625 9.625 6.0625 9.625 4 9 C3.67 8.34 3.34 7.68 3 7 C2.67 15.91 2.34 24.82 2 34 C-3.28 34 -8.56 34 -14 34 C-14.44419134 15.49202733 -14.44419134 15.49202733 -11 6 C-10 9 -10 9 -10.9375 12.75 C-12.58135629 19.4026533 -12.16131224 26.19800041 -12 33 C-7.71 33 -3.42 33 1 33 C0.98839844 31.01355469 0.97679688 29.02710938 0.96484375 26.98046875 C0.95789001 25.05428187 0.95097185 23.12809468 0.94506836 21.2019043 C0.93757271 19.20685232 0.92486655 17.21182214 0.91210938 15.21679688 C0.90888672 13.96318359 0.90566406 12.70957031 0.90234375 11.41796875 C0.89710693 10.26063232 0.89187012 9.1032959 0.88647461 7.91088867 C1 5 1 5 2 2 C1.34 1.34 0.68 0.68 0 0 Z " fill="#FDF0D2" transform="translate(84,108)"/>
<path d="M0 0 C0.33 0 0.66 0 1 0 C1.33 2.97 1.66 5.94 2 9 C2.66 9 3.32 9 4 9 C4.33 11.64 4.66 14.28 5 17 C2.76352369 18.11823815 1.35108471 18.19396061 -1.1328125 18.31640625 C-1.93847656 18.35830078 -2.74414062 18.40019531 -3.57421875 18.44335938 C-4.41597656 18.48267578 -5.25773437 18.52199219 -6.125 18.5625 C-6.97449219 18.60568359 -7.82398438 18.64886719 -8.69921875 18.69335938 C-10.79928223 18.79954236 -12.89961948 18.90028497 -15 19 C-14.34 20.32 -13.68 21.64 -13 23 C-15.62187494 21.95125002 -16.79371361 21.35068687 -18.25 18.875 C-18.4975 18.25625 -18.745 17.6375 -19 17 C-17.48578999 15.48578999 -16.07527232 15.78690144 -13.96484375 15.68359375 C-12.75151367 15.62075195 -12.75151367 15.62075195 -11.51367188 15.55664062 C-10.2384668 15.49766602 -10.2384668 15.49766602 -8.9375 15.4375 C-7.65649414 15.37272461 -7.65649414 15.37272461 -6.34960938 15.30664062 C-4.23327963 15.20023298 -2.11666187 15.09958269 0 15 C0 10.05 0 5.1 0 0 Z " fill="#E7C08B" transform="translate(51,125)"/>
<path d="M0 0 C2.97 0.495 2.97 0.495 6 1 C5.01 1.33 4.02 1.66 3 2 C3.33 4.64 3.66 7.28 4 10 C2.68 10 1.36 10 0 10 C0 12.97 0 15.94 0 19 C-0.66 17.68 -1.32 16.36 -2 15 C-2.33 16.98 -2.66 18.96 -3 21 C-3.33 21 -3.66 21 -4 21 C-4.66 16.71 -5.32 12.42 -6 8 C-6.99 8.495 -6.99 8.495 -8 9 C-7.34 6.69 -6.68 4.38 -6 2 C-4.35 2.33 -2.7 2.66 -1 3 C-0.67 4.32 -0.34 5.64 0 7 C0.66 7 1.32 7 2 7 C1.34 4.69 0.68 2.38 0 0 Z " fill="#F6E4C7" transform="translate(54,115)"/>
<path d="M0 0 C2.31 0 4.62 0 7 0 C6.71681868 2.5636947 6.42377507 5.12561526 6.125 7.6875 C6.04636719 8.40873047 5.96773438 9.12996094 5.88671875 9.87304688 C5.4103949 13.88515932 4.73699858 17.29975512 3 21 C2.67 21 2.34 21 2 21 C1.34 14.07 0.68 7.14 0 0 Z " fill="#CE7F27" transform="translate(79,143)"/>
<path d="M0 0 C0.33 0.66 0.66 1.32 1 2 C0.54109375 2.64066406 0.0821875 3.28132813 -0.390625 3.94140625 C-3.8676834 8.84288983 -7.13011396 13.71940969 -10 19 C-12.31 19 -14.62 19 -17 19 C-15.60652624 15.84795019 -13.97514921 13.73828227 -11.5234375 11.328125 C-10.51796875 10.33232422 -10.51796875 10.33232422 -9.4921875 9.31640625 C-8.79351562 8.63449219 -8.09484375 7.95257813 -7.375 7.25 C-6.66859375 6.55261719 -5.9621875 5.85523437 -5.234375 5.13671875 C-3.49401297 3.41987512 -1.74915019 1.70788168 0 0 Z " fill="#D98C24" transform="translate(159,122)"/>
<path d="M0 0 C1.15224028 0.92961422 2.29659176 1.8690125 3.4375 2.8125 C4.07558594 3.33457031 4.71367187 3.85664063 5.37109375 4.39453125 C7 6 7 6 8 9 C-2.23 9 -12.46 9 -23 9 C-23 8.34 -23 7.68 -23 7 C-14.09 7 -5.18 7 4 7 C3.67 6.34 3.34 5.68 3 5 C2.01 4.67 1.02 4.34 0 4 C0 2.68 0 1.36 0 0 Z " fill="#E8B26A" transform="translate(172,132)"/>
<path d="M0 0 C5.62303757 4.67466337 10.79741554 9.67765667 15.9375 14.875 C16.71673828 15.65875 17.49597656 16.4425 18.29882812 17.25 C20.20154085 19.16438581 22.10186171 21.08108034 24 23 C21 24 21 24 18 23 C18 21.68 18 20.36 18 19 C17.401875 18.896875 16.80375 18.79375 16.1875 18.6875 C13.71756736 17.91123545 12.67748765 16.92911079 11 15 C11.33 14.34 11.66 13.68 12 13 C10.35 12.67 8.7 12.34 7 12 C6.67 10.68 6.34 9.36 6 8 C5.34 8 4.68 8 4 8 C2.21694476 5.36107824 1.00940379 3.02821137 0 0 Z " fill="#F3D281" transform="translate(114,72)"/>
<path d="M0 0 C0.66 0.33 1.32 0.66 2 1 C-1.04114919 5.95315883 -4.59045124 9.83429549 -8.75 13.875 C-9.35199219 14.46796875 -9.95398438 15.0609375 -10.57421875 15.671875 C-12.04491945 17.11923124 -13.5218267 18.5602763 -15 20 C-15 16.35838005 -14.01418023 14.98397071 -12 12 C-11 11 -10 10 -9 9 C-8.67 8.01 -8.34 7.02 -8 6 C-2.91891892 1.45945946 -2.91891892 1.45945946 0 0 Z " fill="#F4D086" transform="translate(128,151)"/>
<path d="M0 0 C1.98 1.65 3.96 3.3 6 5 C5.01 5.495 5.01 5.495 4 6 C3.34 5.67 2.68 5.34 2 5 C1.9259676 10.37513189 1.87145431 15.74996854 1.83520508 21.12548828 C1.82009749 22.95496793 1.79961032 24.78441125 1.77368164 26.61376953 C1.73738415 29.23999992 1.72029385 31.86575249 1.70703125 34.4921875 C1.69154739 35.31306854 1.67606354 36.13394958 1.66011047 36.97970581 C1.6241705 39.52392973 1.6241705 39.52392973 2 43 C2.99 43.66 3.98 44.32 5 45 C5 45.66 5 46.32 5 47 C3.35 46.34 1.7 45.68 0 45 C0 30.15 0 15.3 0 0 Z " fill="#EEBE5A" transform="translate(87,47)"/>
<path d="M0 0 C7.94720169 3.14889124 7.94720169 3.14889124 10 6 C10.6875 8.1875 10.6875 8.1875 11 10 C10.34 10 9.68 10 9 10 C8.525625 9.195625 8.05125 8.39125 7.5625 7.5625 C6.20016328 4.7081924 6.20016328 4.7081924 3 4 C3 5.65 3 7.3 3 9 C2.34773438 9.10957031 1.69546875 9.21914062 1.0234375 9.33203125 C-4.17125885 10.27443191 -8.29264632 11.52863932 -13 14 C-13.66 13.67 -14.32 13.34 -15 13 C-10.74276476 9.11295913 -4.72456601 7 1 7 C0.34 6.01 -0.32 5.02 -1 4 C-0.625 1.8125 -0.625 1.8125 0 0 Z " fill="#FBECD5" transform="translate(69,86)"/>
<path d="M0 0 C5.28 0.33 10.56 0.66 16 1 C16 2.32 16 3.64 16 5 C16.99 5 17.98 5 19 5 C18.67 6.32 18.34 7.64 18 9 C18 8.01 18 7.02 18 6 C17.21625 6.495 16.4325 6.99 15.625 7.5 C13 9 13 9 11 9 C11 9.66 11 10.32 11 11 C10.34 11 9.68 11 9 11 C8.67 11.99 8.34 12.98 8 14 C7.67 13.01 7.34 12.02 7 11 C7.92578125 9.17578125 7.92578125 9.17578125 9.3125 7.3125 C9.76238281 6.68988281 10.21226563 6.06726563 10.67578125 5.42578125 C11.11277344 4.95527344 11.54976562 4.48476562 12 4 C12.66 4 13.32 4 14 4 C14 3.34 14 2.68 14 2 C9.05 2 4.1 2 -1 2 C-0.67 1.34 -0.34 0.68 0 0 Z " fill="#EEC68B" transform="translate(57,98)"/>
<path d="M0 0 C0.33 0 0.66 0 1 0 C1 14.85 1 29.7 1 45 C2.65 45.66 4.3 46.32 6 47 C5.01 47.66 4.02 48.32 3 49 C2.01 48.67 1.02 48.34 0 48 C0 32.16 0 16.32 0 0 Z " fill="#F6D896" transform="translate(86,47)"/>
<path d="M0 0 C0.33 0.66 0.66 1.32 1 2 C-0.62339805 3.70884005 -2.29319053 5.37446717 -4 7 C-4.66 7 -5.32 7 -6 7 C-6.226875 7.5775 -6.45375 8.155 -6.6875 8.75 C-8.33038023 11.5663661 -10.39533227 13.08077114 -13 15 C-14.32 13.68 -15.64 12.36 -17 11 C-14.525 11.495 -14.525 11.495 -12 12 C-11.72027344 11.30132812 -11.44054687 10.60265625 -11.15234375 9.8828125 C-7.91688373 2.53800616 -7.91688373 2.53800616 -5.109375 0.890625 C-3.1875 0.375 -3.1875 0.375 0 0 Z " fill="#F4D489" transform="translate(99,183)"/>
<path d="M0 0 C2 3 2 3 2 5 C2.99 5.33 3.98 5.66 5 6 C5.2475 6.70125 5.495 7.4025 5.75 8.125 C7.56776306 12.30585503 10.69446635 14.93310113 14 18 C13.67 18.66 13.34 19.32 13 20 C-1.7 5.6 -1.7 5.6 -4 1 C-2.68 0.67 -1.36 0.34 0 0 Z " fill="#F5D3A5" transform="translate(68,174)"/>
<path d="M0 0 C0.33 0 0.66 0 1 0 C1 6.27 1 12.54 1 19 C0.01 19 -0.98 19 -2 19 C-2.05428973 16.77110504 -2.09292338 14.54182529 -2.125 12.3125 C-2.15980469 10.45044922 -2.15980469 10.45044922 -2.1953125 8.55078125 C-2.01032021 5.18762143 -1.45767895 3.0014413 0 0 Z " fill="#E1B675" transform="translate(69,123)"/>
<path d="M0 0 C-0.84903202 3.86455954 -2.21579749 7.53808048 -3.5625 11.25 C-3.79646484 11.8996875 -4.03042969 12.549375 -4.27148438 13.21875 C-4.84592787 14.81312378 -5.4227293 16.40664767 -6 18 C-7.18771723 14.57056481 -6.80226223 12.62215325 -5.5625 9.25 C-5.27503906 8.45078125 -4.98757812 7.6515625 -4.69140625 6.828125 C-4.34916016 5.92320313 -4.34916016 5.92320313 -4 5 C-5.65 5.66 -7.3 6.32 -9 7 C-9 6.34 -9 5.68 -9 5 C-8.34 5 -7.68 5 -7 5 C-7 4.34 -7 3.68 -7 3 C-2.61538462 0 -2.61538462 0 0 0 Z " fill="#FCEFDA" transform="translate(75,104)"/>
<path d="M0 0 C0.66 0.33 1.32 0.66 2 1 C0.35 2.98 -1.3 4.96 -3 7 C-0.03 6.01 2.94 5.02 6 4 C5.95117188 7.02734375 5.95117188 7.02734375 5.90234375 10.0546875 C5.87350758 12.08185404 5.87350758 12.08185404 7 14 C6.01 14 5.02 14 4 14 C4 11.36 4 8.72 4 6 C3.071875 6.495 2.14375 6.99 1.1875 7.5 C-2 9 -2 9 -5 9 C-4.5206753 4.68607774 -3.2542015 2.83430453 0 0 Z " fill="#F9EEDA" transform="translate(39,112)"/>
<path d="M0 0 C3.81382782 1.5537817 6.21023246 4.08531749 9 7 C10.60146833 8.60686048 12.205817 10.21085362 13.8125 11.8125 C15.90625 13.90625 15.90625 13.90625 18 16 C17.67 16.66 17.34 17.32 17 18 C16.25234375 17.21753906 15.5046875 16.43507813 14.734375 15.62890625 C13.73998846 14.6063767 12.74517428 13.5842629 11.75 12.5625 C11.25886719 12.04623047 10.76773438 11.52996094 10.26171875 10.99804688 C7.56954212 8.25202671 5.7564967 6.75129934 2 6 C0.75 2.9375 0.75 2.9375 0 0 Z " fill="#FAE9C4" transform="translate(150,108)"/>
<path d="M0 0 C2 2 2 2 2 6 C-4.27 6 -10.54 6 -17 6 C-17 6.66 -17 7.32 -17 8 C-16.01 8.33 -15.02 8.66 -14 9 C-13.67 9.99 -13.34 10.98 -13 12 C-15.62187494 10.95125002 -16.79371361 10.35068687 -18.25 7.875 C-18.4975 7.25625 -18.745 6.6375 -19 6 C-17.48578999 4.48578999 -16.07527232 4.78690144 -13.96484375 4.68359375 C-13.15595703 4.64169922 -12.34707031 4.59980469 -11.51367188 4.55664062 C-10.2384668 4.49766602 -10.2384668 4.49766602 -8.9375 4.4375 C-8.08349609 4.39431641 -7.22949219 4.35113281 -6.34960938 4.30664062 C-4.23327963 4.20023298 -2.11666187 4.09958269 0 4 C0 2.68 0 1.36 0 0 Z " fill="#FDF1DE" transform="translate(51,136)"/>
<path d="M0 0 C2.31 1.65 4.62 3.3 7 5 C6.67 5.66 6.34 6.32 6 7 C5.01 6.67 4.02 6.34 3 6 C1.09198426 7.20129367 1.09198426 7.20129367 -0.6875 8.9375 C-1.62142578 9.78634766 -1.62142578 9.78634766 -2.57421875 10.65234375 C-3.27998047 11.31943359 -3.27998047 11.31943359 -4 12 C-3.649375 11.21625 -3.29875 10.4325 -2.9375 9.625 C-2.628125 8.75875 -2.31875 7.8925 -2 7 C-2.33 6.34 -2.66 5.68 -3 5 C-2.34 4.67 -1.68 4.34 -1 4 C-0.67 2.68 -0.34 1.36 0 0 Z " fill="#F3C24B" transform="translate(107,67)"/>
<path d="M0 0 C2.86724686 0.57344937 3.8614515 0.8614515 6 3 C6 3.99 6 4.98 6 6 C6.66 6.33 7.32 6.66 8 7 C1.375 7.25 1.375 7.25 -2 5 C-1.34 5 -0.68 5 0 5 C0 3.35 0 1.7 0 0 Z " fill="#EFBA74" transform="translate(72,90)"/>
<path d="M0 0 C0.99 0.495 0.99 0.495 2 1 C2 1.66 2 2.32 2 3 C3.32 3.33 4.64 3.66 6 4 C4.68 4.33 3.36 4.66 2 5 C1.67 12.59 1.34 20.18 1 28 C0.67 28 0.34 28 0 28 C0 18.76 0 9.52 0 0 Z " fill="#ECC77B" transform="translate(86,114)"/>
<path d="M0 0 C1.4540625 0.0309375 1.4540625 0.0309375 2.9375 0.0625 C2.2775 1.7125 1.6175 3.3625 0.9375 5.0625 C-1.3725 5.0625 -3.6825 5.0625 -6.0625 5.0625 C-3.64893617 0.07446809 -3.64893617 0.07446809 0 0 Z " fill="#C98837" transform="translate(148.0625,135.9375)"/>
<path d="M0 0 C7.94720169 3.14889124 7.94720169 3.14889124 10 6 C10.6875 8.1875 10.6875 8.1875 11 10 C10.34 10 9.68 10 9 10 C8.525625 9.195625 8.05125 8.39125 7.5625 7.5625 C6.20016328 4.7081924 6.20016328 4.7081924 3 4 C2.67 4.66 2.34 5.32 2 6 C2 5.34 2 4.68 2 4 C1.01 4 0.02 4 -1 4 C-0.67 2.68 -0.34 1.36 0 0 Z " fill="#F3E0BE" transform="translate(69,86)"/>
<path d="M0 0 C0.66 0.33 1.32 0.66 2 1 C-1.66666667 4.66666667 -5.33333333 8.33333333 -9 12 C-9 8.31446856 -8.1477418 6.96240248 -6 4 C-3.375 2.25 -3.375 2.25 -1 1 C-0.67 0.67 -0.34 0.34 0 0 Z " fill="#F8DBA0" transform="translate(110,171)"/>
<path d="M0 0 C1.32 0.33 2.64 0.66 4 1 C4.33 2.32 4.66 3.64 5 5 C6.65 5.33 8.3 5.66 10 6 C9.34 7.32 8.68 8.64 8 10 C6.125 9.8125 6.125 9.8125 4 9 C2.74709605 6.55683729 2 4.75474605 2 2 C1.34 1.34 0.68 0.68 0 0 Z " fill="#FBECD0" transform="translate(84,108)"/>
<path d="M0 0 C4.13621084 3.3810038 7.81316569 6.66590534 11 11 C9.35 11 7.7 11 6 11 C6 10.01 6 9.02 6 8 C5.34 8 4.68 8 4 8 C2.21694476 5.36107824 1.00940379 3.02821137 0 0 Z " fill="#F5D892" transform="translate(114,72)"/>
<path d="M0 0 C1.65 0.33 3.3 0.66 5 1 C5.33 2.32 5.66 3.64 6 5 C-0.625 5.25 -0.625 5.25 -4 3 C-2.35 3 -0.7 3 1 3 C0.67 2.01 0.34 1.02 0 0 Z " fill="#FDEFC7" transform="translate(90,95)"/>
<path d="M0 0 C2.97 0.495 2.97 0.495 6 1 C6.33 3.31 6.66 5.62 7 8 C5.68 7.67 4.36 7.34 3 7 C2.87625 6.360625 2.7525 5.72125 2.625 5.0625 C2.315625 4.0415625 2.315625 4.0415625 2 3 C1.34 2.67 0.68 2.34 0 2 C0 1.34 0 0.68 0 0 Z " fill="#F3AE51" transform="translate(70,177)"/>
<path d="M0 0 C1.32 0 2.64 0 4 0 C4.33 2.31 4.66 4.62 5 7 C4.01 7 3.02 7 2 7 C2 6.34 2 5.68 2 5 C1.34 5 0.68 5 0 5 C0 3.35 0 1.7 0 0 Z " fill="#F3AD49" transform="translate(74,98)"/>
<path d="M0 0 C3.96064107 1.74268207 7.74436549 4.14674729 11 7 C11 7.66 11 8.32 11 9 C7 9 7 9 5.078125 7.28515625 C4.47484375 6.55167969 3.8715625 5.81820312 3.25 5.0625 C2.63640625 4.33160156 2.0228125 3.60070312 1.390625 2.84765625 C0 1 0 1 0 0 Z " fill="#EAB05F" transform="translate(57,166)"/>
<path d="M0 0 C3.3 0 6.6 0 10 0 C10 0.33 10 0.66 10 1 C8.02 1.33 6.04 1.66 4 2 C4.495 2.45375 4.99 2.9075 5.5 3.375 C7 5 7 5 7 7 C5.1875 6.875 5.1875 6.875 3 6 C1.25 2.9375 1.25 2.9375 0 0 Z " fill="#EAB76F" transform="translate(35,143)"/>
<path d="M0 0 C0 8 0 8 -1.5 9.6875 C-1.995 10.120625 -2.49 10.55375 -3 11 C-3.125 4.25 -3.125 4.25 -2 2 C-2.66 1.67 -3.32 1.34 -4 1 C-2 0 -2 0 0 0 Z " fill="#E9C893" transform="translate(47,114)"/>
<path d="M0 0 C0.99 0 1.98 0 3 0 C2.67 1.32 2.34 2.64 2 4 C1.34 4 0.68 4 0 4 C0 4.66 0 5.32 0 6 C-0.66 6 -1.32 6 -2 6 C-2.33 6.99 -2.66 7.98 -3 9 C-3.33 8.01 -3.66 7.02 -4 6 C-2.25 2.8125 -2.25 2.8125 0 0 Z " fill="#E5B881" transform="translate(68,103)"/>
<path d="M0 0 C0.33 0 0.66 0 1 0 C1.33 2.97 1.66 5.94 2 9 C2.66 9 3.32 9 4 9 C4 9.99 4 10.98 4 12 C3.01 12.33 2.02 12.66 1 13 C-0.32229189 10.35541621 -0.09677194 8.32238699 -0.0625 5.375 C-0.05347656 4.37210938 -0.04445312 3.36921875 -0.03515625 2.3359375 C-0.02355469 1.56507812 -0.01195312 0.79421875 0 0 Z " fill="#E5C8A5" transform="translate(51,125)"/>
<path d="M0 0 C0.66 0 1.32 0 2 0 C2.04898438 0.63808594 2.09796875 1.27617188 2.1484375 1.93359375 C2.22320312 2.75988281 2.29796875 3.58617188 2.375 4.4375 C2.44460937 5.26121094 2.51421875 6.08492188 2.5859375 6.93359375 C2.72257812 7.61550781 2.85921875 8.29742187 3 9 C3.66 9.33 4.32 9.66 5 10 C4.01 10.33 3.02 10.66 2 11 C1.67 9.35 1.34 7.7 1 6 C0.34 6 -0.32 6 -1 6 C-0.67 4.02 -0.34 2.04 0 0 Z " fill="#FAF3DD" transform="translate(75,108)"/>
<path d="M0 0 C0.66 0.66 1.32 1.32 2 2 C1.75 4.5625 1.75 4.5625 1 7 C0.01 7.495 0.01 7.495 -1 8 C-1.103125 7.360625 -1.20625 6.72125 -1.3125 6.0625 C-1.539375 5.381875 -1.76625 4.70125 -2 4 C-2.99 3.67 -3.98 3.34 -5 3 C-3.35 2.67 -1.7 2.34 0 2 C0 1.34 0 0.68 0 0 Z " fill="#F7AC46" transform="translate(82,182)"/>
<path d="M0 0 C0.99 0 1.98 0 3 0 C2.67 1.65 2.34 3.3 2 5 C0.02 5 -1.96 5 -4 5 C-2.1875 2.5 -2.1875 2.5 0 0 Z " fill="#D1861E" transform="translate(150,131)"/>
<path d="M0 0 C0 3 0 3 -1.3125 4.38671875 C-2.875 5.59114583 -4.4375 6.79557292 -6 8 C-7.32 6.68 -8.64 5.36 -10 4 C-8.9171875 4.4021875 -8.9171875 4.4021875 -7.8125 4.8125 C-4.73609463 5.34894155 -4.73609463 5.34894155 -2.1875 2.5625 C-1.465625 1.716875 -0.74375 0.87125 0 0 Z " fill="#FBECCB" transform="translate(92,190)"/>
<path d="M0 0 C2.125 0.375 2.125 0.375 4 1 C2.625 3.5 2.625 3.5 1 6 C0.34 6 -0.32 6 -1 6 C-1.625 4.125 -1.625 4.125 -2 2 C-1.34 1.34 -0.68 0.68 0 0 Z " fill="#F7C14B" transform="translate(98,178)"/>
<path d="M0 0 C-0.33 1.32 -0.66 2.64 -1 4 C-1.99 3.67 -2.98 3.34 -4 3 C-4 3.66 -4 4.32 -4 5 C-5.65 5.66 -7.3 6.32 -9 7 C-9 6.34 -9 5.68 -9 5 C-8.34 5 -7.68 5 -7 5 C-7 4.34 -7 3.68 -7 3 C-2.61538462 0 -2.61538462 0 0 0 Z " fill="#FBE3C4" transform="translate(75,104)"/>
<path d="M0 0 C6.08695652 0.54347826 6.08695652 0.54347826 9 2 C9 2.66 9 3.32 9 4 C7.35 4 5.7 4 4 4 C4 3.67 4 3.34 4 3 C1.03 2.505 1.03 2.505 -2 2 C-1.34 1.34 -0.68 0.68 0 0 Z " fill="#E6BE82" transform="translate(82,94)"/>
<path d="M0 0 C0.99 0 1.98 0 3 0 C2.25 2.4375 2.25 2.4375 1 5 C-1.125 5.8125 -1.125 5.8125 -3 6 C-1.125 1.125 -1.125 1.125 0 0 Z " fill="#FDC84E" transform="translate(105,81)"/>
<path d="M0 0 C1.32 0.33 2.64 0.66 4 1 C3.34 2.65 2.68 4.3 2 6 C0.68 6 -0.64 6 -2 6 C-1.34 5.67 -0.68 5.34 0 5 C0 3.35 0 1.7 0 0 Z " fill="#F3BD5A" transform="translate(86,189)"/>
<path d="M0 0 C0 0.66 0 1.32 0 2 C-1.53125 3.2890625 -1.53125 3.2890625 -3.5 4.625 C-4.1496875 5.07101563 -4.799375 5.51703125 -5.46875 5.9765625 C-5.9740625 6.31429687 -6.479375 6.65203125 -7 7 C-6.01695477 2.51137841 -4.96473025 0 0 0 Z " fill="#EBBF5D" transform="translate(142,139)"/>
<path d="M0 0 C1.98 0.99 1.98 0.99 4 2 C3.67 2.99 3.34 3.98 3 5 C2.34 5 1.68 5 1 5 C1 7.31 1 9.62 1 12 C0.67 12 0.34 12 0 12 C0 8.04 0 4.08 0 0 Z " fill="#ECBD75" transform="translate(80,99)"/>
<path d="M0 0 C0.99 0 1.98 0 3 0 C3 2 3 2 1.0625 4 C0.381875 4.66 -0.29875 5.32 -1 6 C-1.33 6.66 -1.66 7.32 -2 8 C-2.66 8 -3.32 8 -4 8 C-3.40353695 4.65980694 -2.31705841 2.49529367 0 0 Z " fill="#FDCF5A" transform="translate(97,80)"/>
<path d="M0 0 C1.65 0 3.3 0 5 0 C3.71937515 1.7074998 2.38232443 3.37373596 1 5 C0.34 5 -0.32 5 -1 5 C-0.67 3.35 -0.34 1.7 0 0 Z " fill="#F2BF53" transform="translate(130,146)"/>
<path d="M0 0 C2.64 0 5.28 0 8 0 C7.34 1.32 6.68 2.64 6 4 C5.01 4 4.02 4 3 4 C3 3.34 3 2.68 3 2 C2.01 1.67 1.02 1.34 0 1 C0 0.67 0 0.34 0 0 Z " fill="#ECBA75" transform="translate(44,108)"/>
<path d="M0 0 C1.98 0.66 3.96 1.32 6 2 C6.33 3.65 6.66 5.3 7 7 C5.83040013 6.02433888 4.66438823 5.044375 3.5 4.0625 C2.8503125 3.51722656 2.200625 2.97195312 1.53125 2.41015625 C1.0259375 1.94480469 0.520625 1.47945312 0 1 C0 0.67 0 0.34 0 0 Z " fill="#E9B262" transform="translate(50,159)"/>
<path d="M0 0 C1.17219543 0.78345715 2.33763668 1.57702836 3.5 2.375 C4.47453125 3.03628906 4.47453125 3.03628906 5.46875 3.7109375 C5.9740625 4.13632813 6.479375 4.56171875 7 5 C7 5.66 7 6.32 7 7 C5.35 6.67 3.7 6.34 2 6 C1.34 4.02 0.68 2.04 0 0 Z " fill="#F1C24E" transform="translate(143,103)"/>
<path d="M0 0 C2.475 0.495 2.475 0.495 5 1 C5.33 2.65 5.66 4.3 6 6 C4.35 6.33 2.7 6.66 1 7 C1.99 6.67 2.98 6.34 4 6 C2.84826645 3.53199953 1.95216435 1.95216435 0 0 Z " fill="#F7C55A" transform="translate(92,94)"/>
<path d="M0 0 C1.32 0.33 2.64 0.66 4 1 C-0.75 5.875 -0.75 5.875 -3 7 C-2.690625 6.401875 -2.38125 5.80375 -2.0625 5.1875 C-0.89790296 2.91043228 -0.89790296 2.91043228 0 0 Z " fill="#F0C15E" transform="translate(109,168)"/>
<path d="M0 0 C1.98 1.65 3.96 3.3 6 5 C5.34 5.66 4.68 6.32 4 7 C4 6.34 4 5.68 4 5 C2.68 4.67 1.36 4.34 0 4 C0 2.68 0 1.36 0 0 Z " fill="#EFC362" transform="translate(155,114)"/>
</svg>
