<svg xmlns="http://www.w3.org/2000/svg" viewBox="0 0 100 100">
  <!-- Enactus-style geometric origami arrow -->
  <polygon points="15,50 50,15 50,42" fill="#F5A623"/>
  <polygon points="50,15 85,50 50,42" fill="#E8961E"/>
  <polygon points="15,50 50,85 50,58" fill="#D4860F"/>
  <polygon points="50,85 85,50 50,58" fill="#F5A623"/>
  <!-- Palm tree silhouettes -->
  <g fill="#C47B0A" opacity="0.6">
    <line x1="58" y1="22" x2="58" y2="38" stroke="#C47B0A" stroke-width="1.5"/>
    <path d="M58,22 Q64,18 70,22 Q64,20 58,22Z"/>
    <path d="M58,22 Q52,18 46,22 Q52,20 58,22Z"/>
    <path d="M58,24 Q64,20 72,26 Q64,22 58,24Z"/>
    <path d="M58,24 Q52,20 44,26 Q52,22 58,24Z"/>
  </g>
</svg>
